Coordinates
version=1
nRows=29
nColumns=38
inDegrees=no

Units are S.I. units (second, meters, Newtons, ...)
If the header above contains a line with 'inDegrees', this indicates whether rotational values are in degrees (yes) or radians (no).

endheader
time	pelvis_tilt	pelvis_list	pelvis_rotation	pelvis_tx	pelvis_ty	pelvis_tz	hip_flexion_r	hip_adduction_r	hip_rotation_r	knee_angle_r	ankle_angle_r	subtalar_angle_r	mtp_angle_r	hip_flexion_l	hip_adduction_l	hip_rotation_l	knee_angle_l	ankle_angle_l	subtalar_angle_l	mtp_angle_l	lumbar_extension	lumbar_bending	lumbar_rotation	arm_flex_r	arm_add_r	arm_rot_r	elbow_flex_r	pro_sup_r	wrist_flex_r	wrist_dev_r	arm_flex_l	arm_add_l	arm_rot_l	elbow_flex_l	pro_sup_l	wrist_flex_l	wrist_dev_l
5.465	-0.216508	-0.0165397	-3.16466	-0.279523	0.934701	-0.0519195	-0.534855	0.0565046	0.015709	0.263546	0.295951	0	0	0.332071	0.0428425	-0.17471	0.203639	0.0714451	0	0	-0.470458	-0.0377278	0.141335	0.779083	-0.433775	1.09884	0.966157	0.716799	0	0	-0.243423	-0.288692	1.57084	0.335488	0.000113851	0	0
5.475	-0.214915	-0.020938	-3.17243	-0.281962	0.933606	-0.0517613	-0.534394	0.0439612	0.0113039	0.291056	0.276377	0	0	0.334667	0.046505	-0.180543	0.227481	0.0504996	0	0	-0.465296	-0.0475603	0.146148	0.764719	-0.429609	1.10541	0.954128	0.709775	0	0	-0.242527	-0.288178	1.57083	0.334724	0.000142303	0	0
5.48499	-0.214222	-0.0258349	-3.18049	-0.284605	0.932818	-0.0515897	-0.532584	0.0299484	0.00502577	0.321637	0.252293	0	0	0.335881	0.0498954	-0.188193	0.253273	0.0293788	0	0	-0.460469	-0.0578767	0.150136	0.750014	-0.423878	1.11645	0.938699	0.699012	0	0	-0.240435	-0.287425	1.57081	0.334189	0.000170103	0	0
5.49498	-0.214415	-0.0311017	-3.18863	-0.287389	0.932337	-0.0513864	-0.529075	0.0145997	-0.00311883	0.355615	0.223572	0	0	0.335705	0.0530352	-0.197226	0.280472	0.00960079	0	0	-0.4561	-0.068413	0.153075	0.735279	-0.416564	1.13235	0.919867	0.68417	0	0	-0.237065	-0.286405	1.57079	0.333896	0.000190446	0	0
5.50497	-0.215391	-0.0366134	-3.19661	-0.290234	0.932153	-0.0511314	-0.523424	-0.00190667	-0.013012	0.393336	0.190264	0	0	0.334215	0.0560066	-0.207064	0.30856	-0.00744165	0	0	-0.452277	-0.0788981	0.154695	0.720848	-0.40765	1.15342	0.897683	0.664915	0	0	-0.23231	-0.285105	1.57077	0.333866	0.000194836	0	0
5.51496	-0.216954	-0.0422671	-3.20414	-0.293048	0.932248	-0.0508053	-0.515138	-0.0193571	-0.0244218	0.435108	0.152625	0	0	0.331543	0.0589642	-0.217033	0.336966	-0.0206599	0	0	-0.449029	-0.0890797	0.154699	0.707029	-0.397148	1.17986	0.872273	0.640988	0	0	-0.226047	-0.283546	1.57073	0.334138	0.000172876	0	0
5.52495	-0.218834	-0.047989	-3.21094	-0.295736	0.932593	-0.0503889	-0.503722	-0.0375055	-0.0370037	0.481133	0.111132	0	0	0.327848	0.0621171	-0.226454	0.365023	-0.0294013	0	0	-0.446326	-0.0987451	0.152817	0.694039	-0.385118	1.21159	0.843867	0.612312	0	0	-0.218143	-0.281779	1.5707	0.334767	0.00011223	0	0
5.53494	-0.220726	-0.053724	-3.21675	-0.298208	0.93316	-0.0498669	-0.488767	-0.0560712	-0.0502964	0.531435	0.0664842	0	0	0.32328	0.0656794	-0.234751	0.391987	-0.0334797	0	0	-0.444095	-0.107729	0.14888	0.681939	-0.371711	1.24813	0.812828	0.579131	0	0	-0.208459	-0.279895	1.57065	0.335818	-1.16211e-06	0	0
5.54493	-0.222437	-0.0594111	-3.22137	-0.300399	0.933926	-0.0492277	-0.470063	-0.0747388	-0.0637662	0.585595	0.0196232	0	0	0.317838	0.0698174	-0.241521	0.417135	-0.0330959	0	0	-0.442311	-0.115891	0.142879	0.670546	-0.35722	1.28846	0.779698	0.54218	0	0	-0.196837	-0.278002	1.5706	0.337347	-0.000182477	0	0
5.55492	-0.223899	-0.0649644	-3.22469	-0.302267	0.934882	-0.0484657	-0.447745	-0.093175	-0.0768889	0.642824	-0.0283913	0	0	0.31139	0.0746073	-0.24656	0.439832	-0.0287131	0	0	-0.441007	-0.123106	0.134958	0.659533	-0.342034	1.33122	0.745123	0.50242	0	0	-0.183131	-0.276202	1.57055	0.339398	-0.00044688	0	0
5.56491	-0.225128	-0.0702496	-3.22671	-0.303793	0.936028	-0.0475814	-0.422182	-0.111023	-0.0891816	0.702081	-0.0764141	0	0	0.303742	0.0800029	-0.249819	0.459586	-0.0209477	0	0	-0.440237	-0.129243	0.125447	0.648427	-0.326668	1.37465	0.709867	0.461161	0	0	-0.1672	-0.274578	1.5705	0.341994	-0.00080772	0	0
5.5749	-0.226168	-0.0750934	-3.2275	-0.304972	0.937368	-0.0465812	-0.39386	-0.127915	-0.100236	0.762197	-0.123236	0	0	0.294719	0.0858516	-0.251344	0.47606	-0.0105017	0	0	-0.440029	-0.134175	0.114812	0.636698	-0.311701	1.41678	0.67473	0.419836	0	0	-0.148928	-0.273182	1.57046	0.345133	-0.00127389	0	0
5.58489	-0.227055	-0.0793067	-3.22722	-0.305813	0.938908	-0.045476	-0.363297	-0.143486	-0.109735	0.821985	-0.167595	0	0	0.284202	0.0919276	-0.251241	0.489061	0.00188449	0	0	-0.440361	-0.137785	0.103588	0.623826	-0.297721	1.45569	0.640489	0.379875	0	0	-0.128239	-0.272033	1.57044	0.34879	-0.00184624	0	0
5.59489	-0.227794	-0.0827102	-3.22603	-0.306331	0.940656	-0.04428	-0.330977	-0.157397	-0.117461	0.880338	-0.208182	0	0	0.272152	0.0979698	-0.24965	0.498511	0.0154869	0	0	-0.441147	-0.139985	0.0923032	0.60938	-0.285254	1.48971	0.607821	0.342518	0	0	-0.105109	-0.271124	1.57046	0.35292	-0.00251293	0	0
5.60488	-0.228342	-0.0851531	-3.22412	-0.306548	0.942613	-0.0430093	-0.297318	-0.169352	-0.123307	0.936304	-0.243631	0	0	0.258629	0.103712	-0.246731	0.504441	0.0296562	0	0	-0.442227	-0.140711	0.0813843	0.593113	-0.274674	1.5179	0.577219	0.308506	0	0	-0.0795955	-0.270425	1.57053	0.357464	-0.00324371	0	0
5.61487	-0.22861	-0.0865206	-3.22163	-0.306489	0.944774	-0.0416794	-0.26265	-0.179101	-0.127278	0.989116	-0.272559	0	0	0.24379	0.108899	-0.242653	0.506978	0.0438503	0	0	-0.443382	-0.139923	0.0711203	0.574969	-0.266178	1.54012	0.548982	0.278084	0	0	-0.0518385	-0.269894	1.57068	0.36236	-0.0039833	0	0
5.62486	-0.228484	-0.0867379	-3.21865	-0.306182	0.947127	-0.0403035	-0.227234	-0.186468	-0.129503	1.03817	-0.293754	0	0	0.227866	0.113308	-0.237568	0.506346	0.0576416	0	0	-0.444365	-0.1376	0.0616644	0.555034	-0.259835	1.55675	0.523285	0.25114	0	0	-0.0220374	-0.269492	1.57091	0.367555	-0.00464412	0	0
5.63485	-0.227852	-0.0857811	-3.2152	-0.305656	0.94965	-0.0388913	-0.191296	-0.191382	-0.130256	1.08296	-0.306505	0	0	0.211122	0.116769	-0.231588	0.502843	0.0707164	0	0	-0.444934	-0.133748	0.0530413	0.533483	-0.255616	1.56849	0.500215	0.227335	0	0	0.00956594	-0.269194	1.57127	0.373023	-0.00509887	0	0
5.64484	-0.226638	-0.0836792	-3.21126	-0.304944	0.952314	-0.0374494	-0.155071	-0.193888	-0.129937	1.12305	-0.310846	0	0	0.193808	0.119189	-0.224769	0.496806	0.0828689	0	0	-0.444896	-0.128407	0.0451612	0.510555	-0.253423	1.57617	0.479799	0.206211	0	0	0.0427081	-0.269009	1.57178	0.378769	-0.00517401	0	0
5.65483	-0.224835	-0.0805064	-3.20676	-0.304073	0.955085	-0.0359831	-0.118838	-0.194136	-0.129027	1.15804	-0.307551	0	0	0.176108	0.120544	-0.21712	0.488575	0.0939905	0	0	-0.444144	-0.121648	0.0378477	0.486519	-0.253104	1.58065	0.462004	0.187291	0	0	0.0771253	-0.268973	1.57244	0.384841	-0.00464516	0	0
5.66482	-0.222504	-0.0763781	-3.2016	-0.303071	0.957927	-0.034496	-0.0829182	-0.192369	-0.128027	1.18761	-0.297927	0	0	0.158126	0.12087	-0.208622	0.478471	0.10405	0	0	-0.442667	-0.113581	0.0308709	0.461666	-0.254478	1.58272	0.446745	0.170147	0	0	0.112569	-0.269152	1.57328	0.39132	-0.00323643	0	0
5.67481	-0.219755	-0.071451	-3.19569	-0.301959	0.960801	-0.0329905	-0.0476457	-0.188909	-0.127408	1.21151	-0.283511	0	0	0.139913	0.120267	-0.199251	0.466792	0.113074	0	0	-0.440524	-0.104361	0.0239826	0.436275	-0.257345	1.58309	0.433882	0.154424	0	0	0.148812	-0.26963	1.57428	0.398313	-0.000625616	0	0
5.6848	-0.216713	-0.0659133	-3.18896	-0.300753	0.963665	-0.0314677	-0.0133324	-0.184133	-0.127562	1.22962	-0.265794	0	0	0.12149	0.118876	-0.188991	0.45381	0.121133	0	0	-0.437815	-0.0941808	0.0169512	0.410602	-0.261504	1.58235	0.423223	0.139841	0	0	0.185657	-0.270503	1.57541	0.405944	0.00354171	0	0
5.69479	-0.213512	-0.0599677	-3.18138	-0.299467	0.966475	-0.0299308	0.019751	-0.178433	-0.128768	1.24191	-0.246048	0	0	0.102863	0.116856	-0.17785	0.439781	0.128329	0	0	-0.434665	-0.0832693	0.00958972	0.384871	-0.266752	1.58095	0.414534	0.12618	0	0	0.222933	-0.271874	1.5766	0.414352	0.00962624	0	0
5.70479	-0.210284	-0.0538104	-3.17296	-0.298107	0.969186	-0.0283864	0.0513834	-0.172171	-0.131166	1.24844	-0.225241	0	0	0.0840311	0.114354	-0.165882	0.424952	0.134784	0	0	-0.431226	-0.0718706	0.00178037	0.359283	-0.272897	1.57925	0.407562	0.113265	0	0	0.260505	-0.273844	1.57775	0.423679	0.0179533	0	0
5.71478	-0.207161	-0.047626	-3.16378	-0.296673	0.971756	-0.0268448	0.0813903	-0.16567	-0.134767	1.24938	-0.204048	0	0	0.0649855	0.111504	-0.153183	0.409561	0.140625	0	0	-0.427674	-0.0602375	-0.00652539	0.334021	-0.279755	1.57749	0.402048	0.100941	0	0	0.298262	-0.276506	1.57867	0.434062	0.0287525	0	0
5.72477	-0.204269	-0.0415967	-3.15394	-0.295165	0.974145	-0.0253184	0.109626	-0.159218	-0.139493	1.24491	-0.182894	0	0	0.0457075	0.108438	-0.139873	0.393829	0.145987	0	0	-0.424186	-0.048631	-0.0153402	0.309239	-0.287146	1.57583	0.397734	0.0890776	0	0	0.336102	-0.279951	1.57914	0.445631	0.0420785	0	0
5.73476	-0.201714	-0.0359035	-3.14359	-0.293584	0.976318	-0.023821	0.135972	-0.153071	-0.145208	1.23526	-0.162034	0	0	0.0261704	0.105295	-0.126083	0.377945	0.151012	0	0	-0.42093	-0.0373136	-0.0246618	0.285069	-0.29489	1.57437	0.394369	0.0775709	0	0	0.373909	-0.284273	1.57882	0.458508	0.0578559	0	0
5.74475	-0.199586	-0.0307196	-3.13287	-0.291935	0.978243	-0.0223674	0.160344	-0.147448	-0.151725	1.22068	-0.141631	0	0	0.0063443	0.102217	-0.11196	0.362061	0.155846	0	0	-0.418054	-0.0265399	-0.0344757	0.26162	-0.302815	1.57315	0.391715	0.0663712	0	0	0.411548	-0.289564	1.57733	0.472807	0.0759278	0	0
